<svg width="64" height="64" viewBox="0 0 64 64" fill="none" xmlns="http://www.w3.org/2000/svg">
  <!-- Background circle with gradient -->
  <circle cx="32" cy="32" r="32" fill="url(#gradient)"/>
  
  <!-- Book/Education symbol -->
  <rect x="16" y="20" width="32" height="24" rx="2" fill="white" opacity="0.9"/>
  <rect x="18" y="22" width="28" height="2" fill="#3b82f6"/>
  <rect x="18" y="26" width="20" height="1.5" fill="#64748b"/>
  <rect x="18" y="29" width="24" height="1.5" fill="#64748b"/>
  <rect x="18" y="32" width="18" height="1.5" fill="#64748b"/>
  <rect x="18" y="35" width="22" height="1.5" fill="#64748b"/>
  <rect x="18" y="38" width="16" height="1.5" fill="#64748b"/>
  
  <!-- AI/Tech symbol (brain/circuit) -->
  <circle cx="42" cy="14" r="8" fill="#10b981" opacity="0.9"/>
  <circle cx="42" cy="14" r="3" fill="white"/>
  <path d="M39 11l6 6M45 11l-6 6" stroke="white" stroke-width="1.5" stroke-linecap="round"/>
  
  <!-- Helper hand -->
  <path d="M52 28c2 0 4 2 4 4v8c0 2-2 4-4 4h-4v-16h4z" fill="#f59e0b" opacity="0.8"/>
  <circle cx="50" cy="32" r="1.5" fill="white"/>
  
  <!-- Gradient definition -->
  <defs>
    <linearGradient id="gradient" x1="0%" y1="0%" x2="100%" y2="100%">
      <stop offset="0%" style="stop-color:#3b82f6;stop-opacity:1" />
      <stop offset="50%" style="stop-color:#1d4ed8;stop-opacity:1" />
      <stop offset="100%" style="stop-color:#1e40af;stop-opacity:1" />
    </linearGradient>
  </defs>
</svg>